<mxfile host="app.diagrams.net" modified="2024-06-25T12:05:48.967Z" agent="Mozilla/5.0 (Windows NT 10.0; Win64; x64) AppleWebKit/537.36 (KHTML, like Gecko) Chrome/126.0.0.0 Safari/537.36 Edg/126.0.0.0" etag="slnrU5AYybo7ONdUluM3" version="24.4.8" type="device">
  <diagram name="第 1 页" id="-lpTfE61ci0kIJKWOCwy">
    <mxGraphModel dx="691" dy="392" grid="1" gridSize="10" guides="1" tooltips="1" connect="1" arrows="1" fold="1" page="1" pageScale="1" pageWidth="980" pageHeight="1390" math="0" shadow="0">
      <root>
        <mxCell id="0" />
        <mxCell id="1" parent="0" />
        <mxCell id="DvQFuDoDfHKZYiXR_zxV-3" value="" style="edgeStyle=orthogonalEdgeStyle;rounded=0;orthogonalLoop=1;jettySize=auto;html=1;" edge="1" parent="1" source="DvQFuDoDfHKZYiXR_zxV-1" target="DvQFuDoDfHKZYiXR_zxV-2">
          <mxGeometry relative="1" as="geometry" />
        </mxCell>
        <mxCell id="DvQFuDoDfHKZYiXR_zxV-1" value="初始化" style="rounded=1;whiteSpace=wrap;html=1;" vertex="1" parent="1">
          <mxGeometry x="490" y="130" width="80" height="50" as="geometry" />
        </mxCell>
        <mxCell id="DvQFuDoDfHKZYiXR_zxV-9" style="edgeStyle=orthogonalEdgeStyle;rounded=0;orthogonalLoop=1;jettySize=auto;html=1;exitX=0.5;exitY=1;exitDx=0;exitDy=0;" edge="1" parent="1" source="DvQFuDoDfHKZYiXR_zxV-2">
          <mxGeometry relative="1" as="geometry">
            <mxPoint x="530" y="200" as="targetPoint" />
            <Array as="points">
              <mxPoint x="530" y="320" />
              <mxPoint x="610" y="320" />
              <mxPoint x="610" y="200" />
            </Array>
          </mxGeometry>
        </mxCell>
        <mxCell id="DvQFuDoDfHKZYiXR_zxV-16" style="edgeStyle=orthogonalEdgeStyle;rounded=0;orthogonalLoop=1;jettySize=auto;html=1;" edge="1" parent="1" source="DvQFuDoDfHKZYiXR_zxV-2" target="DvQFuDoDfHKZYiXR_zxV-15">
          <mxGeometry relative="1" as="geometry" />
        </mxCell>
        <mxCell id="DvQFuDoDfHKZYiXR_zxV-23" value="以设定步长Ts为周期中断" style="edgeLabel;html=1;align=center;verticalAlign=middle;resizable=0;points=[];" vertex="1" connectable="0" parent="DvQFuDoDfHKZYiXR_zxV-16">
          <mxGeometry x="-0.1299" y="-1" relative="1" as="geometry">
            <mxPoint as="offset" />
          </mxGeometry>
        </mxCell>
        <mxCell id="DvQFuDoDfHKZYiXR_zxV-2" value="按键检测&lt;div&gt;控制频率增减&lt;/div&gt;" style="rounded=1;whiteSpace=wrap;html=1;" vertex="1" parent="1">
          <mxGeometry x="490" y="230" width="80" height="70" as="geometry" />
        </mxCell>
        <mxCell id="DvQFuDoDfHKZYiXR_zxV-10" value="循环" style="text;html=1;align=center;verticalAlign=middle;resizable=0;points=[];autosize=1;strokeColor=none;fillColor=none;" vertex="1" parent="1">
          <mxGeometry x="600" y="238" width="50" height="30" as="geometry" />
        </mxCell>
        <mxCell id="DvQFuDoDfHKZYiXR_zxV-18" style="edgeStyle=orthogonalEdgeStyle;rounded=0;orthogonalLoop=1;jettySize=auto;html=1;" edge="1" parent="1" source="DvQFuDoDfHKZYiXR_zxV-15" target="DvQFuDoDfHKZYiXR_zxV-17">
          <mxGeometry relative="1" as="geometry" />
        </mxCell>
        <mxCell id="DvQFuDoDfHKZYiXR_zxV-15" value="定时器中断" style="rounded=1;whiteSpace=wrap;html=1;" vertex="1" parent="1">
          <mxGeometry x="230" y="238" width="80" height="50" as="geometry" />
        </mxCell>
        <mxCell id="DvQFuDoDfHKZYiXR_zxV-20" style="edgeStyle=orthogonalEdgeStyle;rounded=0;orthogonalLoop=1;jettySize=auto;html=1;" edge="1" parent="1" source="DvQFuDoDfHKZYiXR_zxV-17" target="DvQFuDoDfHKZYiXR_zxV-19">
          <mxGeometry relative="1" as="geometry" />
        </mxCell>
        <mxCell id="DvQFuDoDfHKZYiXR_zxV-17" value="比较载波和调制波，输出SPWM" style="rounded=1;whiteSpace=wrap;html=1;" vertex="1" parent="1">
          <mxGeometry x="230" y="323" width="80" height="50" as="geometry" />
        </mxCell>
        <mxCell id="DvQFuDoDfHKZYiXR_zxV-22" style="edgeStyle=orthogonalEdgeStyle;rounded=0;orthogonalLoop=1;jettySize=auto;html=1;" edge="1" parent="1" source="DvQFuDoDfHKZYiXR_zxV-19" target="DvQFuDoDfHKZYiXR_zxV-21">
          <mxGeometry relative="1" as="geometry" />
        </mxCell>
        <mxCell id="DvQFuDoDfHKZYiXR_zxV-19" value="&lt;font&gt;根据控制步长增减载波值&lt;/font&gt;" style="rounded=1;whiteSpace=wrap;html=1;" vertex="1" parent="1">
          <mxGeometry x="230" y="408" width="80" height="50" as="geometry" />
        </mxCell>
        <mxCell id="DvQFuDoDfHKZYiXR_zxV-21" value="&lt;font&gt;递增三相调制波数组索引，并作越界判断&lt;/font&gt;" style="rounded=1;whiteSpace=wrap;html=1;" vertex="1" parent="1">
          <mxGeometry x="230" y="488" width="80" height="50" as="geometry" />
        </mxCell>
        <mxCell id="DvQFuDoDfHKZYiXR_zxV-27" style="edgeStyle=orthogonalEdgeStyle;rounded=0;orthogonalLoop=1;jettySize=auto;html=1;" edge="1" parent="1" source="DvQFuDoDfHKZYiXR_zxV-25" target="DvQFuDoDfHKZYiXR_zxV-26">
          <mxGeometry relative="1" as="geometry" />
        </mxCell>
        <mxCell id="DvQFuDoDfHKZYiXR_zxV-28" value="控制频率" style="edgeLabel;html=1;align=center;verticalAlign=middle;resizable=0;points=[];" vertex="1" connectable="0" parent="DvQFuDoDfHKZYiXR_zxV-27">
          <mxGeometry x="-0.27" y="1" relative="1" as="geometry">
            <mxPoint x="4" y="1" as="offset" />
          </mxGeometry>
        </mxCell>
        <mxCell id="DvQFuDoDfHKZYiXR_zxV-25" value="按键输入" style="rounded=1;whiteSpace=wrap;html=1;" vertex="1" parent="1">
          <mxGeometry x="200" y="730" width="70" height="40" as="geometry" />
        </mxCell>
        <mxCell id="DvQFuDoDfHKZYiXR_zxV-26" value="MCU" style="rounded=1;whiteSpace=wrap;html=1;" vertex="1" parent="1">
          <mxGeometry x="340" y="670" width="50" height="160" as="geometry" />
        </mxCell>
        <mxCell id="DvQFuDoDfHKZYiXR_zxV-29" value="" style="endArrow=classic;html=1;rounded=0;exitX=1;exitY=0.25;exitDx=0;exitDy=0;" edge="1" parent="1">
          <mxGeometry width="50" height="50" relative="1" as="geometry">
            <mxPoint x="390" y="690" as="sourcePoint" />
            <mxPoint x="480" y="690" as="targetPoint" />
          </mxGeometry>
        </mxCell>
        <mxCell id="DvQFuDoDfHKZYiXR_zxV-34" value="A相H" style="edgeLabel;html=1;align=center;verticalAlign=middle;resizable=0;points=[];" vertex="1" connectable="0" parent="DvQFuDoDfHKZYiXR_zxV-29">
          <mxGeometry x="-0.1185" y="-1" relative="1" as="geometry">
            <mxPoint as="offset" />
          </mxGeometry>
        </mxCell>
        <mxCell id="DvQFuDoDfHKZYiXR_zxV-30" value="" style="endArrow=classic;html=1;rounded=0;" edge="1" parent="1">
          <mxGeometry width="50" height="50" relative="1" as="geometry">
            <mxPoint x="390" y="710" as="sourcePoint" />
            <mxPoint x="480" y="710" as="targetPoint" />
          </mxGeometry>
        </mxCell>
        <mxCell id="DvQFuDoDfHKZYiXR_zxV-35" value="A相L" style="edgeLabel;html=1;align=center;verticalAlign=middle;resizable=0;points=[];" vertex="1" connectable="0" parent="DvQFuDoDfHKZYiXR_zxV-30">
          <mxGeometry x="-0.0815" y="3" relative="1" as="geometry">
            <mxPoint x="-2" as="offset" />
          </mxGeometry>
        </mxCell>
        <mxCell id="DvQFuDoDfHKZYiXR_zxV-36" value="" style="endArrow=classic;html=1;rounded=0;exitX=1;exitY=0.25;exitDx=0;exitDy=0;" edge="1" parent="1">
          <mxGeometry width="50" height="50" relative="1" as="geometry">
            <mxPoint x="390" y="739.58" as="sourcePoint" />
            <mxPoint x="480" y="739.58" as="targetPoint" />
          </mxGeometry>
        </mxCell>
        <mxCell id="DvQFuDoDfHKZYiXR_zxV-37" value="B相H" style="edgeLabel;html=1;align=center;verticalAlign=middle;resizable=0;points=[];" vertex="1" connectable="0" parent="DvQFuDoDfHKZYiXR_zxV-36">
          <mxGeometry x="-0.1185" y="-1" relative="1" as="geometry">
            <mxPoint as="offset" />
          </mxGeometry>
        </mxCell>
        <mxCell id="DvQFuDoDfHKZYiXR_zxV-38" value="" style="endArrow=classic;html=1;rounded=0;" edge="1" parent="1">
          <mxGeometry width="50" height="50" relative="1" as="geometry">
            <mxPoint x="390" y="759.58" as="sourcePoint" />
            <mxPoint x="480" y="759.58" as="targetPoint" />
          </mxGeometry>
        </mxCell>
        <mxCell id="DvQFuDoDfHKZYiXR_zxV-39" value="B相L" style="edgeLabel;html=1;align=center;verticalAlign=middle;resizable=0;points=[];" vertex="1" connectable="0" parent="DvQFuDoDfHKZYiXR_zxV-38">
          <mxGeometry x="-0.0815" y="3" relative="1" as="geometry">
            <mxPoint x="-2" as="offset" />
          </mxGeometry>
        </mxCell>
        <mxCell id="DvQFuDoDfHKZYiXR_zxV-40" value="" style="endArrow=classic;html=1;rounded=0;exitX=1;exitY=0.25;exitDx=0;exitDy=0;" edge="1" parent="1">
          <mxGeometry width="50" height="50" relative="1" as="geometry">
            <mxPoint x="390" y="790" as="sourcePoint" />
            <mxPoint x="480" y="790" as="targetPoint" />
          </mxGeometry>
        </mxCell>
        <mxCell id="DvQFuDoDfHKZYiXR_zxV-41" value="C相H" style="edgeLabel;html=1;align=center;verticalAlign=middle;resizable=0;points=[];" vertex="1" connectable="0" parent="DvQFuDoDfHKZYiXR_zxV-40">
          <mxGeometry x="-0.1185" y="-1" relative="1" as="geometry">
            <mxPoint as="offset" />
          </mxGeometry>
        </mxCell>
        <mxCell id="DvQFuDoDfHKZYiXR_zxV-42" value="" style="endArrow=classic;html=1;rounded=0;" edge="1" parent="1">
          <mxGeometry width="50" height="50" relative="1" as="geometry">
            <mxPoint x="390" y="810" as="sourcePoint" />
            <mxPoint x="480" y="810" as="targetPoint" />
          </mxGeometry>
        </mxCell>
        <mxCell id="DvQFuDoDfHKZYiXR_zxV-43" value="C相L" style="edgeLabel;html=1;align=center;verticalAlign=middle;resizable=0;points=[];" vertex="1" connectable="0" parent="DvQFuDoDfHKZYiXR_zxV-42">
          <mxGeometry x="-0.0815" y="3" relative="1" as="geometry">
            <mxPoint x="-2" as="offset" />
          </mxGeometry>
        </mxCell>
        <mxCell id="DvQFuDoDfHKZYiXR_zxV-54" value="" style="edgeStyle=orthogonalEdgeStyle;rounded=0;orthogonalLoop=1;jettySize=auto;html=1;exitX=1;exitY=0.25;exitDx=0;exitDy=0;" edge="1" parent="1" source="DvQFuDoDfHKZYiXR_zxV-48" target="DvQFuDoDfHKZYiXR_zxV-53">
          <mxGeometry relative="1" as="geometry">
            <Array as="points">
              <mxPoint x="550" y="690" />
              <mxPoint x="550" y="690" />
            </Array>
          </mxGeometry>
        </mxCell>
        <mxCell id="DvQFuDoDfHKZYiXR_zxV-64" value="A相上桥臂" style="edgeLabel;html=1;align=center;verticalAlign=middle;resizable=0;points=[];fontSize=7;" vertex="1" connectable="0" parent="DvQFuDoDfHKZYiXR_zxV-54">
          <mxGeometry x="0.013" y="-1" relative="1" as="geometry">
            <mxPoint y="-1" as="offset" />
          </mxGeometry>
        </mxCell>
        <mxCell id="DvQFuDoDfHKZYiXR_zxV-56" value="" style="edgeStyle=orthogonalEdgeStyle;rounded=0;orthogonalLoop=1;jettySize=auto;html=1;exitX=1;exitY=0.75;exitDx=0;exitDy=0;" edge="1" parent="1" source="DvQFuDoDfHKZYiXR_zxV-48" target="DvQFuDoDfHKZYiXR_zxV-53">
          <mxGeometry relative="1" as="geometry">
            <Array as="points">
              <mxPoint x="520" y="709" />
              <mxPoint x="520" y="749" />
              <mxPoint x="560" y="749" />
              <mxPoint x="560" y="790" />
            </Array>
          </mxGeometry>
        </mxCell>
        <mxCell id="DvQFuDoDfHKZYiXR_zxV-67" value="&lt;font style=&quot;font-size: 7px;&quot;&gt;A相下桥臂&lt;/font&gt;" style="edgeLabel;html=1;align=center;verticalAlign=middle;resizable=0;points=[];fontSize=7;" vertex="1" connectable="0" parent="DvQFuDoDfHKZYiXR_zxV-56">
          <mxGeometry x="0.628" y="-1" relative="1" as="geometry">
            <mxPoint x="2" y="-1" as="offset" />
          </mxGeometry>
        </mxCell>
        <mxCell id="DvQFuDoDfHKZYiXR_zxV-48" value="IR2101" style="rounded=1;whiteSpace=wrap;html=1;" vertex="1" parent="1">
          <mxGeometry x="465" y="680" width="50" height="39" as="geometry" />
        </mxCell>
        <mxCell id="DvQFuDoDfHKZYiXR_zxV-57" value="" style="edgeStyle=orthogonalEdgeStyle;rounded=0;orthogonalLoop=1;jettySize=auto;html=1;exitX=1;exitY=0.25;exitDx=0;exitDy=0;" edge="1" parent="1" source="DvQFuDoDfHKZYiXR_zxV-51" target="DvQFuDoDfHKZYiXR_zxV-53">
          <mxGeometry relative="1" as="geometry">
            <Array as="points">
              <mxPoint x="530" y="740" />
              <mxPoint x="530" y="700" />
            </Array>
          </mxGeometry>
        </mxCell>
        <mxCell id="DvQFuDoDfHKZYiXR_zxV-65" value="B相上桥臂" style="edgeLabel;html=1;align=center;verticalAlign=middle;resizable=0;points=[];fontSize=7;" vertex="1" connectable="0" parent="DvQFuDoDfHKZYiXR_zxV-57">
          <mxGeometry x="0.2274" y="-2" relative="1" as="geometry">
            <mxPoint x="6" y="-2" as="offset" />
          </mxGeometry>
        </mxCell>
        <mxCell id="DvQFuDoDfHKZYiXR_zxV-59" value="" style="edgeStyle=orthogonalEdgeStyle;rounded=0;orthogonalLoop=1;jettySize=auto;html=1;exitX=1;exitY=0.75;exitDx=0;exitDy=0;" edge="1" parent="1" source="DvQFuDoDfHKZYiXR_zxV-51" target="DvQFuDoDfHKZYiXR_zxV-53">
          <mxGeometry relative="1" as="geometry">
            <Array as="points">
              <mxPoint x="550" y="759" />
              <mxPoint x="550" y="800" />
            </Array>
          </mxGeometry>
        </mxCell>
        <mxCell id="DvQFuDoDfHKZYiXR_zxV-68" value="&lt;font style=&quot;font-size: 7px;&quot;&gt;B相下桥臂&lt;/font&gt;" style="edgeLabel;html=1;align=center;verticalAlign=middle;resizable=0;points=[];" vertex="1" connectable="0" parent="DvQFuDoDfHKZYiXR_zxV-59">
          <mxGeometry x="0.4063" y="-1" relative="1" as="geometry">
            <mxPoint x="10" y="-1" as="offset" />
          </mxGeometry>
        </mxCell>
        <mxCell id="DvQFuDoDfHKZYiXR_zxV-51" value="IR2101" style="rounded=1;whiteSpace=wrap;html=1;" vertex="1" parent="1">
          <mxGeometry x="465" y="730" width="50" height="39" as="geometry" />
        </mxCell>
        <mxCell id="DvQFuDoDfHKZYiXR_zxV-60" value="" style="edgeStyle=orthogonalEdgeStyle;rounded=0;orthogonalLoop=1;jettySize=auto;html=1;exitX=1;exitY=0.25;exitDx=0;exitDy=0;" edge="1" parent="1" source="DvQFuDoDfHKZYiXR_zxV-52" target="DvQFuDoDfHKZYiXR_zxV-53">
          <mxGeometry relative="1" as="geometry">
            <Array as="points">
              <mxPoint x="540" y="790" />
              <mxPoint x="540" y="710" />
            </Array>
          </mxGeometry>
        </mxCell>
        <mxCell id="DvQFuDoDfHKZYiXR_zxV-66" value="&lt;font style=&quot;font-size: 7px;&quot;&gt;C相上桥臂&lt;/font&gt;" style="edgeLabel;html=1;align=center;verticalAlign=middle;resizable=0;points=[];" vertex="1" connectable="0" parent="DvQFuDoDfHKZYiXR_zxV-60">
          <mxGeometry x="0.4959" y="-1" relative="1" as="geometry">
            <mxPoint as="offset" />
          </mxGeometry>
        </mxCell>
        <mxCell id="DvQFuDoDfHKZYiXR_zxV-62" value="" style="edgeStyle=orthogonalEdgeStyle;rounded=0;orthogonalLoop=1;jettySize=auto;html=1;exitX=1;exitY=0.75;exitDx=0;exitDy=0;" edge="1" parent="1" source="DvQFuDoDfHKZYiXR_zxV-52" target="DvQFuDoDfHKZYiXR_zxV-53">
          <mxGeometry relative="1" as="geometry">
            <Array as="points">
              <mxPoint x="600" y="810" />
              <mxPoint x="600" y="810" />
            </Array>
          </mxGeometry>
        </mxCell>
        <mxCell id="DvQFuDoDfHKZYiXR_zxV-69" value="&lt;font style=&quot;font-size: 7px;&quot;&gt;C相下桥臂&lt;/font&gt;" style="edgeLabel;html=1;align=center;verticalAlign=middle;resizable=0;points=[];" vertex="1" connectable="0" parent="DvQFuDoDfHKZYiXR_zxV-62">
          <mxGeometry x="0.1773" y="-1" relative="1" as="geometry">
            <mxPoint x="9" as="offset" />
          </mxGeometry>
        </mxCell>
        <mxCell id="DvQFuDoDfHKZYiXR_zxV-52" value="IR2101" style="rounded=1;whiteSpace=wrap;html=1;" vertex="1" parent="1">
          <mxGeometry x="465" y="780" width="50" height="39" as="geometry" />
        </mxCell>
        <mxCell id="DvQFuDoDfHKZYiXR_zxV-71" style="edgeStyle=orthogonalEdgeStyle;rounded=0;orthogonalLoop=1;jettySize=auto;html=1;exitX=1;exitY=0.5;exitDx=0;exitDy=0;" edge="1" parent="1" source="DvQFuDoDfHKZYiXR_zxV-53" target="DvQFuDoDfHKZYiXR_zxV-70">
          <mxGeometry relative="1" as="geometry">
            <Array as="points">
              <mxPoint x="670" y="720" />
            </Array>
          </mxGeometry>
        </mxCell>
        <mxCell id="DvQFuDoDfHKZYiXR_zxV-72" value="" style="edgeStyle=orthogonalEdgeStyle;rounded=0;orthogonalLoop=1;jettySize=auto;html=1;" edge="1" parent="1">
          <mxGeometry relative="1" as="geometry">
            <mxPoint x="670" y="780" as="sourcePoint" />
            <mxPoint x="710" y="780.5200000000001" as="targetPoint" />
          </mxGeometry>
        </mxCell>
        <mxCell id="DvQFuDoDfHKZYiXR_zxV-73" value="" style="edgeStyle=orthogonalEdgeStyle;rounded=0;orthogonalLoop=1;jettySize=auto;html=1;" edge="1" parent="1" source="DvQFuDoDfHKZYiXR_zxV-53" target="DvQFuDoDfHKZYiXR_zxV-70">
          <mxGeometry relative="1" as="geometry" />
        </mxCell>
        <mxCell id="DvQFuDoDfHKZYiXR_zxV-53" value="三相桥式逆变电路" style="rounded=1;whiteSpace=wrap;html=1;" vertex="1" parent="1">
          <mxGeometry x="610" y="679" width="60" height="140" as="geometry" />
        </mxCell>
        <mxCell id="DvQFuDoDfHKZYiXR_zxV-63" value="放大控制信号" style="text;html=1;align=center;verticalAlign=middle;whiteSpace=wrap;rounded=0;" vertex="1" parent="1">
          <mxGeometry x="450" y="650" width="80" height="30" as="geometry" />
        </mxCell>
        <mxCell id="DvQFuDoDfHKZYiXR_zxV-77" style="edgeStyle=orthogonalEdgeStyle;rounded=0;orthogonalLoop=1;jettySize=auto;html=1;" edge="1" parent="1" source="DvQFuDoDfHKZYiXR_zxV-70" target="DvQFuDoDfHKZYiXR_zxV-76">
          <mxGeometry relative="1" as="geometry">
            <Array as="points">
              <mxPoint x="790" y="740" />
              <mxPoint x="790" y="740" />
            </Array>
          </mxGeometry>
        </mxCell>
        <mxCell id="DvQFuDoDfHKZYiXR_zxV-78" value="" style="edgeStyle=orthogonalEdgeStyle;rounded=0;orthogonalLoop=1;jettySize=auto;html=1;" edge="1" parent="1" source="DvQFuDoDfHKZYiXR_zxV-70" target="DvQFuDoDfHKZYiXR_zxV-76">
          <mxGeometry relative="1" as="geometry">
            <Array as="points">
              <mxPoint x="780" y="760" />
              <mxPoint x="780" y="760" />
            </Array>
          </mxGeometry>
        </mxCell>
        <mxCell id="DvQFuDoDfHKZYiXR_zxV-79" value="" style="edgeStyle=orthogonalEdgeStyle;rounded=0;orthogonalLoop=1;jettySize=auto;html=1;" edge="1" parent="1" source="DvQFuDoDfHKZYiXR_zxV-70" target="DvQFuDoDfHKZYiXR_zxV-76">
          <mxGeometry relative="1" as="geometry" />
        </mxCell>
        <mxCell id="DvQFuDoDfHKZYiXR_zxV-70" value="&amp;nbsp;LCL滤波" style="rounded=1;whiteSpace=wrap;html=1;" vertex="1" parent="1">
          <mxGeometry x="710" y="704.5" width="60" height="90" as="geometry" />
        </mxCell>
        <mxCell id="DvQFuDoDfHKZYiXR_zxV-76" value="电机" style="rounded=1;whiteSpace=wrap;html=1;" vertex="1" parent="1">
          <mxGeometry x="810" y="722" width="50" height="55" as="geometry" />
        </mxCell>
        <mxCell id="DvQFuDoDfHKZYiXR_zxV-80" value="逆变" style="text;html=1;align=center;verticalAlign=middle;whiteSpace=wrap;rounded=0;" vertex="1" parent="1">
          <mxGeometry x="610" y="649" width="60" height="30" as="geometry" />
        </mxCell>
        <mxCell id="DvQFuDoDfHKZYiXR_zxV-83" value="滤除谐波" style="text;html=1;align=center;verticalAlign=middle;whiteSpace=wrap;rounded=0;" vertex="1" parent="1">
          <mxGeometry x="710" y="650" width="60" height="30" as="geometry" />
        </mxCell>
        <mxCell id="DvQFuDoDfHKZYiXR_zxV-84" value="&lt;font style=&quot;font-size: 9px;&quot;&gt;SPWM&lt;/font&gt;" style="text;html=1;align=center;verticalAlign=middle;whiteSpace=wrap;rounded=0;" vertex="1" parent="1">
          <mxGeometry x="680" y="780" width="20" height="26" as="geometry" />
        </mxCell>
      </root>
    </mxGraphModel>
  </diagram>
</mxfile>
